<svg xmlns="http://www.w3.org/2000/svg" width="2363" height="713" viewBox="0 0 2363 713">
  <metadata><?xpacket begin="﻿" id="W5M0MpCehiHzreSzNTczkc9d"?>
<x:xmpmeta xmlns:x="adobe:ns:meta/" x:xmptk="Adobe XMP Core 5.6-c142 79.160924, 2017/07/13-01:06:39        ">
   <rdf:RDF xmlns:rdf="http://www.w3.org/1999/02/22-rdf-syntax-ns#">
      <rdf:Description rdf:about=""/>
   </rdf:RDF>
</x:xmpmeta>
                                                                                                    
                                                                                                    
                                                                                                    
                                                                                                    
                                                                                                    
                                                                                                    
                                                                                                    
                                                                                                    
                                                                                                    
                                                                                                    
                                                                                                    
                                                                                                    
                                                                                                    
                                                                                                    
                                                                                                    
                                                                                                    
                                                                                                    
                                                                                                    
                                                                                                    
                                                                                                    
                           
<?xpacket end="w"?></metadata>
<defs>
    <style>
      .cls-1 {
        font-size: 865.816px;
        fill: #fff;
        font-family: Comfortaa;
        font-weight: 700;
      }

      .cls-2 {
        fill: #7dd959;
      }

      .cls-2, .cls-3, .cls-4 {
        fill-rule: evenodd;
      }

      .cls-3 {
        fill: #fd7400;
      }

      .cls-4 {
        fill: #19b2fe;
      }
    </style>
  </defs>
  <text id="landimsoft" class="cls-1" transform="matrix(0.328, 0.005, 0, 0.55, 496.114, 671.923)">landimsoft</text>
  <path id="Verde" class="cls-2" d="M2346.5,364.125c-10.97,2.826-203.48,52.437-211.04,54.386-9.82,2.529-20.46-4.875-18.01-15.529,1.95-8.539,41.89-179.414,45.31-194,2.25-9.582,14.73-12.646,22.86-5.892,9.07,7.529,155.36,131.025,165.68,140.039C2358.87,349.725,2357.31,361.339,2346.5,364.125Z"/>
  <path id="Laranja" class="cls-3" d="M2277.35,73.078c-8.06,6.175-149.45,114.563-155,118.823-7.21,5.524-18.42,3.54-19.99-5.715-1.26-7.415-25.74-156.123-27.82-168.824-1.36-8.343,7.86-15.25,16.79-12.872,9.97,2.65,171.43,46.986,182.92,50.351C2282.67,57.3,2285.28,66.992,2277.35,73.078ZM2010.32,523.307,1581.65,508.13"/>
  <path id="Azul" class="cls-4" d="M2042.64,145.832c3.27,7.435,60.77,137.951,63.03,143.081,2.93,6.652-1.84,14.247-10.43,12.969-6.88-1.02-144.68-22.049-156.44-23.855-7.73-1.187-11.34-9.654-6.83-15.5,5.02-6.519,87.68-111.773,93.74-119.209A10.017,10.017,0,0,1,2042.64,145.832Zm298.59-9.347"/>
  <path id="Circulo" class="cls-4" d="M229.5,713c-121.59,0-220.51-98.915-220.51-220.5S107.911,272,229.5,272s220.51,98.915,220.51,220.5S351.092,713,229.5,713Zm0-17.64c111.863,0,202.87-91,202.87-202.859s-91.007-202.86-202.87-202.86-202.869,91-202.869,202.86S117.639,695.36,229.5,695.36Z"/>
  <path id="tagfechar" class="cls-4" d="M289.439,398.834a19.863,19.863,0,0,0-13.464,5.134,16.524,16.524,0,0,0,0,24.754l74.351,68.446-74.351,68.466a16.535,16.535,0,0,0,0,24.764,20.21,20.21,0,0,0,26.919,0l87.517-80.578a16.773,16.773,0,0,0,5.576-12.632,17.016,17.016,0,0,0-5.576-12.642l-87.517-80.578A19.834,19.834,0,0,0,289.439,398.834ZM164.56,402.409a19.838,19.838,0,0,0-13.454,5.134L63.59,488.122a17.083,17.083,0,0,0,0,25.253l87.516,80.578a20.219,20.219,0,0,0,26.908,0,16.547,16.547,0,0,0,0-24.775l-74.361-68.4,74.361-68.456a16.564,16.564,0,0,0,0-24.775A19.836,19.836,0,0,0,164.56,402.409Zm79.871-23.166c-9.962,0-18.763,6.643-20.435,16L188.724,592.9c-1.859,10.39,5.8,20.231,17.094,21.942a22.593,22.593,0,0,0,3.391.256c9.984,0,18.769-6.652,20.441-16.015l35.261-197.645c1.859-10.422-5.8-20.232-17.094-21.943A22.639,22.639,0,0,0,244.431,379.243Z"/>
</svg>
