<svg xmlns="http://www.w3.org/2000/svg" width="2363" height="713" viewBox="0 0 2363 713">
  <metadata><?xpacket begin="﻿" id="W5M0MpCehiHzreSzNTczkc9d"?>
<x:xmpmeta xmlns:x="adobe:ns:meta/" x:xmptk="Adobe XMP Core 5.6-c142 79.160924, 2017/07/13-01:06:39        ">
   <rdf:RDF xmlns:rdf="http://www.w3.org/1999/02/22-rdf-syntax-ns#">
      <rdf:Description rdf:about=""/>
   </rdf:RDF>
</x:xmpmeta>
                                                                                                    
                                                                                                    
                                                                                                    
                                                                                                    
                                                                                                    
                                                                                                    
                                                                                                    
                                                                                                    
                                                                                                    
                                                                                                    
                                                                                                    
                                                                                                    
                                                                                                    
                                                                                                    
                                                                                                    
                                                                                                    
                                                                                                    
                                                                                                    
                                                                                                    
                                                                                                    
                           
<?xpacket end="w"?></metadata>
<defs>
    <style>
      .cls-1 {
        font-size: 865.816px;
        fill: #fff;
        font-family: "Trebuchet MS";
        font-weight: 700;
      }

      .cls-2 {
        fill: #7dd959;
      }

      .cls-2, .cls-3, .cls-4 {
        fill-rule: evenodd;
      }

      .cls-3 {
        fill: #fd7400;
      }

      .cls-4 {
        fill: #19b2fe;
      }
    </style>
  </defs>
  <text id="landimsoft" class="cls-1" transform="matrix(0.371, 0.005, 0, 0.55, 493.177, 663.35)">landimsoft</text>
  <path id="Verde" class="cls-2" d="M2346.5,364.125c-10.97,2.826-203.48,52.437-211.04,54.386-9.82,2.529-20.46-4.875-18.01-15.529,1.95-8.539,41.89-179.414,45.31-194,2.25-9.582,14.73-12.646,22.86-5.892,9.07,7.53,155.36,131.025,165.68,140.039C2358.87,349.725,2357.31,361.339,2346.5,364.125Z"/>
  <path id="Laranja" class="cls-3" d="M2277.35,73.078c-8.06,6.175-149.45,114.563-155,118.823-7.21,5.524-18.42,3.54-19.99-5.715-1.26-7.415-25.74-156.123-27.82-168.824-1.36-8.343,7.86-15.25,16.79-12.872,9.97,2.65,171.43,46.986,182.92,50.351C2282.67,57.3,2285.28,66.992,2277.35,73.078ZM2010.32,523.307,1581.65,508.13"/>
  <path id="Azul" class="cls-4" d="M2042.64,145.832c3.27,7.435,60.77,137.951,63.03,143.081,2.93,6.652-1.84,14.247-10.43,12.969-6.88-1.02-144.68-22.049-156.44-23.855-7.73-1.187-11.34-9.654-6.83-15.5,5.02-6.519,87.68-111.773,93.74-119.209A10.017,10.017,0,0,1,2042.64,145.832Zm298.59-9.347"/>
  <path id="Circulo" class="cls-4" d="M229.5,713C107.911,713,8.991,595.693,8.991,451.5S107.911,190,229.5,190s220.51,117.308,220.51,261.5S351.092,713,229.5,713Zm0-20.92c111.863,0,202.87-107.923,202.87-240.579s-91.007-240.58-202.87-240.58S26.632,318.845,26.632,451.5,117.639,692.08,229.5,692.08Z"/>
  <path id="tagfechar" class="cls-4" d="M289.439,341.352a17.861,17.861,0,0,0-13.464,6.378c-7.435,8.479-7.435,22.272,0,30.751l74.351,85.029-74.351,85.054c-7.435,8.491-7.435,22.26,0,30.764a17.391,17.391,0,0,0,26.919,0l87.517-100.1a23.422,23.422,0,0,0,5.576-15.692,23.77,23.77,0,0,0-5.576-15.705l-87.517-100.1A17.835,17.835,0,0,0,289.439,341.352ZM164.56,345.794a17.836,17.836,0,0,0-13.454,6.378L63.59,452.272a24.85,24.85,0,0,0,0,31.372l87.516,100.1a17.395,17.395,0,0,0,26.908,0c7.446-8.5,7.424-22.272,0-30.776L103.653,467.99l74.361-85.042c7.424-8.5,7.424-22.272,0-30.776A17.835,17.835,0,0,0,164.56,345.794Zm79.871-28.779c-9.962,0-18.763,8.251-20.435,19.87L188.724,582.441c-1.859,12.908,5.8,25.133,17.094,27.259a18.36,18.36,0,0,0,3.391.317c9.984,0,18.769-8.263,20.441-19.894l35.261-245.532c1.859-12.946-5.8-25.132-17.094-27.258A18.208,18.208,0,0,0,244.431,317.015Z"/>
</svg>
