<svg xmlns="http://www.w3.org/2000/svg" width="2363" height="713" viewBox="0 0 2363 713">
  <metadata><?xpacket begin="﻿" id="W5M0MpCehiHzreSzNTczkc9d"?>
<x:xmpmeta xmlns:x="adobe:ns:meta/" x:xmptk="Adobe XMP Core 5.6-c142 79.160924, 2017/07/13-01:06:39        ">
   <rdf:RDF xmlns:rdf="http://www.w3.org/1999/02/22-rdf-syntax-ns#">
      <rdf:Description rdf:about=""/>
   </rdf:RDF>
</x:xmpmeta>
                                                                                                    
                                                                                                    
                                                                                                    
                                                                                                    
                                                                                                    
                                                                                                    
                                                                                                    
                                                                                                    
                                                                                                    
                                                                                                    
                                                                                                    
                                                                                                    
                                                                                                    
                                                                                                    
                                                                                                    
                                                                                                    
                                                                                                    
                                                                                                    
                                                                                                    
                                                                                                    
                           
<?xpacket end="w"?></metadata>
<defs>
    <style>
      .cls-1 {
        font-size: 692.653px;
        fill: #fff;
        font-family: Comfortaa;
        font-weight: 700;
      }

      .cls-2 {
        fill: #7dd959;
      }

      .cls-2, .cls-3, .cls-4 {
        fill-rule: evenodd;
      }

      .cls-3 {
        fill: #fd7400;
      }

      .cls-4 {
        fill: #19b2fe;
      }
    </style>
  </defs>
  <text id="landimsoft" class="cls-1" transform="matrix(0.328, 0.005, 0, 0.55, 562.113, 653.924)">landimsoft</text>
  <path id="Verde" class="cls-2" d="M2193.96,438.66c-13.64,2.494-253,46.273-262.4,47.994-12.2,2.231-24.56-7.342-20.65-19.749,3.12-9.942,66.66-208.849,72.1-225.829,3.58-11.152,19.08-13.811,28.43-5.2,10.42,9.6,178.38,166.88,190.2,178.332C2210.31,422.593,2207.4,436.2,2193.96,438.66Z"/>
  <path id="Laranja" class="cls-3" d="M2134.67,89.276c-10.36,6.677-192.38,123.885-199.53,128.491-9.28,5.974-22.8,2.762-23.91-8.3-0.9-8.863-17.94-186.539-19.38-201.714-0.94-9.967,10.91-17.42,21.62-13.919,11.93,3.9,205.26,68.779,219,73.644C2142.54,71.038,2144.89,82.695,2134.67,89.276ZM1769.69,600.869m-522.13-51.041"/>
  <path id="Azul" class="cls-4" d="M1841.78,157.153c3.36,9.043,62.29,167.765,64.61,174,3,8.09-3.48,16.7-13.86,14.526-8.31-1.738-174.76-37.236-188.97-40.279-9.33-2-13.01-12.287-7-18.849,6.7-7.318,116.72-125.356,124.78-133.678C1827.23,146.776,1838.47,148.241,1841.78,157.153Zm365.42,12.009"/>
  <path id="tagfechar" class="cls-4" d="M344.386,383.014a19.36,19.36,0,0,0-13.345,5.246,17.23,17.23,0,0,0,0,25.292l73.7,69.934-73.7,69.954a17.241,17.241,0,0,0,0,25.3,19.587,19.587,0,0,0,26.682,0l86.749-82.329A17.381,17.381,0,0,0,450,483.506a17.634,17.634,0,0,0-5.527-12.916l-86.749-82.33A19.328,19.328,0,0,0,344.386,383.014ZM220.6,386.667a19.331,19.331,0,0,0-13.336,5.246l-86.748,82.33a17.82,17.82,0,0,0,0,25.8l86.748,82.33a19.6,19.6,0,0,0,26.672,0,17.254,17.254,0,0,0,0-25.313L160.231,487.17l73.709-69.944a17.271,17.271,0,0,0,0-25.313A19.329,19.329,0,0,0,220.6,386.667ZM299.774,363c-9.875,0-18.6,6.787-20.256,16.342L244.556,581.3c-1.843,10.616,5.747,20.671,16.944,22.419a21.812,21.812,0,0,0,3.361.261c9.9,0,18.605-6.8,20.261-16.362l34.952-201.942c1.843-10.648-5.747-20.671-16.944-22.42A21.748,21.748,0,0,0,299.774,363Z"/>
  <path id="Circulo" class="cls-4" d="M288,286.5a176.725,176.725,0,0,1,72.479,15.34,188.25,188.25,0,0,1,59.5,41.056q24.938,25.717,39.813,61.36a195.225,195.225,0,0,1,0,149.488q-14.875,35.643-39.813,61.36a188.25,188.25,0,0,1-59.5,41.056,178.9,178.9,0,0,1-144.958,0,188.25,188.25,0,0,1-59.5-41.056q-24.937-25.718-39.813-61.36a195.225,195.225,0,0,1,0-149.488q14.876-35.643,39.813-61.36a188.25,188.25,0,0,1,59.5-41.056A176.728,176.728,0,0,1,288,286.5Zm0-38.5q-60.959,0-112.437,30.98T94.042,363.049Q64,416.137,64,479T94.042,594.951q30.041,53.088,81.521,84.069T288,710q60.959,0,112.438-30.98t81.52-84.069Q512,541.863,512,479T481.958,363.049q-30.041-53.088-81.52-84.069T288,248Z"/>
</svg>
